<?xml version="1.0" encoding="UTF-8" standalone="no"?>
<!-- Created with Inkscape (http://www.inkscape.org/) -->

<svg
   xmlns:dc="http://purl.org/dc/elements/1.1/"
   xmlns:cc="http://creativecommons.org/ns#"
   xmlns:rdf="http://www.w3.org/1999/02/22-rdf-syntax-ns#"
   xmlns:svg="http://www.w3.org/2000/svg"
   xmlns="http://www.w3.org/2000/svg"
   xmlns:xlink="http://www.w3.org/1999/xlink"
   xmlns:sodipodi="http://sodipodi.sourceforge.net/DTD/sodipodi-0.dtd"
   xmlns:inkscape="http://www.inkscape.org/namespaces/inkscape"
   width="48"
   height="48"
   id="svg2"
   version="1.1"
   inkscape:version="0.48.4 r9939"
   sodipodi:docname="dashboard_btn.svg"
   inkscape:export-xdpi="90"
   inkscape:export-ydpi="90">
  <defs
     id="defs4" />
  <sodipodi:namedview
     id="base"
     pagecolor="#ffffff"
     bordercolor="#666666"
     borderopacity="1.0"
     inkscape:pageopacity="0.0"
     inkscape:pageshadow="2"
     inkscape:zoom="12.645833"
     inkscape:cx="10.952224"
     inkscape:cy="24"
     inkscape:document-units="px"
     inkscape:current-layer="layer1"
     showgrid="false"
     inkscape:window-width="1301"
     inkscape:window-height="744"
     inkscape:window-x="65"
     inkscape:window-y="24"
     inkscape:window-maximized="1" />
  <metadata
     id="metadata7">
    <rdf:RDF>
      <cc:Work
         rdf:about="">
        <dc:format>image/svg+xml</dc:format>
        <dc:type
           rdf:resource="http://purl.org/dc/dcmitype/StillImage" />
        <dc:title />
      </cc:Work>
    </rdf:RDF>
  </metadata>
  <g
     inkscape:label="Layer 1"
     inkscape:groupmode="layer"
     id="layer1"
     transform="translate(0,-1004.3622)">
    <path
       style="color:#000000;fill:#6c6c6c;fill-opacity:0.1882353;fill-rule:nonzero;stroke:none;stroke-width:1;marker:none;visibility:visible;display:inline;overflow:visible;enable-background:accumulate"
       d="M 8.5 0 C 3.7947459 0 2.4538972e-17 3.7947459 0 8.5 L 0 39.5 C 0 44.205254 3.7947459 48 8.5 48 L 28 48 L 39.5 48 L 48 48 L 48 39.5 L 48 8.5 L 48 0 L 39.5 0 L 28 0 L 8.5 0 z "
       transform="translate(0,1004.3622)"
       id="rect2985" />
    <path
       style="color:#000000;fill:#6c6c6c;fill-opacity:0.42352942;fill-rule:nonzero;stroke:none;stroke-width:1;marker:none;visibility:visible;display:inline;overflow:visible;enable-background:accumulate"
       id="path3768"
       d="m 21.578445,1015.3615 c -0.796283,1.6299 -1.839268,3.1249 -2.8604,4.6188 -1.728934,2.5092 -3.596305,4.9174 -5.454775,7.3307 -0.680235,0.9361 -1.440418,1.8117 -2.120758,2.7475 -0.208925,0.2874 -0.304407,0.2636 -0.166334,0.2861 0.339845,-1.0546 0.05319,0.087 0.07438,-1.1057 5.82e-4,-0.033 0.07021,-0.011 0.09802,0.01 0.172614,0.1071 0.326598,0.2418 0.491874,0.36 0.89641,0.641 0.838393,0.5897 1.827477,1.2498 2.713711,1.7755 5.374775,3.6288 8.016542,5.5091 0.923817,0.6699 1.844043,1.3447 2.767863,2.0145 1.97123,1.4295 -0.05028,4.2172 -2.021515,2.7878 l 0,0 c -0.915611,-0.664 -1.827805,-1.3326 -2.743211,-1.9968 -2.613963,-1.8607 -5.247058,-3.6945 -7.932417,-5.4511 -0.780997,-0.5222 -1.245409,-0.819 -1.984492,-1.3612 -0.8945078,-0.6562 -1.7143155,-1.2405 -1.8756683,-2.4496 -0.044661,-0.3346 0.1015549,-0.6676 0.1523311,-1.0014 0.089828,-0.1747 0.1693452,-0.355 0.2694809,-0.524 0.1161401,-0.196 0.5280043,-0.7334 0.6445707,-0.8849 0.5882246,-0.7648 1.1988236,-1.5122 1.7735496,-2.2874 1.818944,-2.362 3.647651,-4.7182 5.340598,-7.1735 0.904468,-1.322 1.829277,-2.6425 2.556129,-4.0735 0.988929,-2.2251 4.135684,-0.8266 3.146754,1.3985 z"
       inkscape:connector-curvature="0" />
    <use
       x="0"
       y="0"
       xlink:href="#path3768"
       id="use3770"
       transform="translate(17.676878,3.9044552e-8)"
       width="48"
       height="48" />
  </g>
</svg>
