<?xml version="1.0" encoding="UTF-8" standalone="no"?>
<!-- Created with Inkscape (http://www.inkscape.org/) -->

<svg
   xmlns:dc="http://purl.org/dc/elements/1.1/"
   xmlns:cc="http://creativecommons.org/ns#"
   xmlns:rdf="http://www.w3.org/1999/02/22-rdf-syntax-ns#"
   xmlns:svg="http://www.w3.org/2000/svg"
   xmlns="http://www.w3.org/2000/svg"
   xmlns:sodipodi="http://sodipodi.sourceforge.net/DTD/sodipodi-0.dtd"
   xmlns:inkscape="http://www.inkscape.org/namespaces/inkscape"
   width="48"
   height="48"
   id="svg2"
   version="1.1"
   inkscape:version="0.48.4 r9939"
   sodipodi:docname="新建文档 1">
  <defs
     id="defs4" />
  <sodipodi:namedview
     id="base"
     pagecolor="#ffffff"
     bordercolor="#666666"
     borderopacity="1.0"
     inkscape:pageopacity="0.0"
     inkscape:pageshadow="2"
     inkscape:zoom="12.645833"
     inkscape:cx="24"
     inkscape:cy="24"
     inkscape:document-units="px"
     inkscape:current-layer="layer1-5"
     showgrid="false"
     inkscape:window-width="1301"
     inkscape:window-height="744"
     inkscape:window-x="65"
     inkscape:window-y="24"
     inkscape:window-maximized="1" />
  <metadata
     id="metadata7">
    <rdf:RDF>
      <cc:Work
         rdf:about="">
        <dc:format>image/svg+xml</dc:format>
        <dc:type
           rdf:resource="http://purl.org/dc/dcmitype/StillImage" />
        <dc:title></dc:title>
      </cc:Work>
    </rdf:RDF>
  </metadata>
  <g
     inkscape:label="Layer 1"
     inkscape:groupmode="layer"
     id="layer1"
     transform="translate(0,-1004.3622)">
    <g
       id="layer1-5"
       inkscape:label="Layer 1"
       transform="translate(-13.650882,-6.276201)">
      <path
         inkscape:connector-curvature="0"
         id="path3791"
         d="m 15.443409,1029.1879 a 0.78583953,0.78583953 0 0 0 0.01046,0.084 0.78583953,0.78583953 0 0 0 0.0095,0.084 0.78583953,0.78583953 0 0 0 0.0095,0.084 l 3.387426,18.5293 a 0.78583953,0.78583953 0 0 0 0.0095,0.084 0.78583953,0.78583953 0 0 0 0.02218,0.048 0.78583953,0.78583953 0 0 0 0.04626,0.097 0.78583953,0.78583953 0 0 0 0.02218,0.048 0.78583953,0.78583953 0 0 0 0.05893,0.061 0.78583953,0.78583953 0 0 0 0.05892,0.061 0.78583953,0.78583953 0 0 0 0.05893,0.061 0.78583953,0.78583953 0 0 0 0.05798,0.061 0.78583953,0.78583953 0 0 0 0.0716,0.026 0.78583953,0.78583953 0 0 0 0.0716,0.025 0.78583953,0.78583953 0 0 0 0.07065,0.025 0.78583953,0.78583953 0 0 0 0.0716,0.026 0.78583953,0.78583953 0 0 0 0.0716,0.025 0.78583953,0.78583953 0 0 0 0.08427,-0.01 0.78583953,0.78583953 0 0 0 0.08333,-0.01 0.78583953,0.78583953 0 0 0 0.08427,-0.01 0.78583953,0.78583953 0 0 0 0.08333,-0.011 0.78583953,0.78583953 0 0 0 0.04753,-0.023 0.78583953,0.78583953 0 0 0 0.09694,-0.046 l 15.169458,-9.1553 a 0.78583953,0.78583953 0 0 0 0.0602,-0.059 0.78583953,0.78583953 0 0 0 0.04753,-0.023 0.78583953,0.78583953 0 0 0 0.0602,-0.059 0.78583953,0.78583953 0 0 0 0.0602,-0.059 0.78583953,0.78583953 0 0 0 0.02534,-0.071 0.78583953,0.78583953 0 0 0 0.0602,-0.059 0.78583953,0.78583953 0 0 0 0.02535,-0.071 0.78583953,0.78583953 0 0 0 0.03801,-0.1068 0.78583953,0.78583953 0 0 0 -0.0095,-0.083 0.78583953,0.78583953 0 0 0 0.02534,-0.071 0.78583953,0.78583953 0 0 0 -0.0095,-0.084 0.78583953,0.78583953 0 0 0 -0.02218,-0.048 0.78583953,0.78583953 0 0 0 -0.0095,-0.084 0.78583953,0.78583953 0 0 0 -0.0095,-0.084 0.78583953,0.78583953 0 0 0 -0.05798,-0.061 0.78583953,0.78583953 0 0 0 -0.0095,-0.084 0.78583953,0.78583953 0 0 0 -0.05798,-0.061 0.78583953,0.78583953 0 0 0 -0.05798,-0.061 0.78583953,0.78583953 0 0 0 -0.05893,-0.061 0.78583953,0.78583953 0 0 0 -0.07065,-0.025 0.78583953,0.78583953 0 0 0 -0.05799,-0.061 0.78583953,0.78583953 0 0 0 -0.03486,-0.012 l -3.429736,-1.7425 c 0.793967,-1.0463 1.665593,-1.9969 2.614651,-2.8384 0.949057,-0.8416 1.961939,-1.578 3.031888,-2.2087 1.070233,-0.6307 2.208307,-1.1549 3.365706,-1.5686 1.15721,-0.4137 2.356419,-0.7048 3.566785,-0.8954 1.210461,-0.1907 2.419414,-0.2632 3.649021,-0.2246 1.229514,0.038 2.467949,0.1953 3.682507,0.469 1.214651,0.2738 2.431179,0.6454 3.596866,1.1604 1.165685,0.515 2.283482,1.1579 3.366381,1.9204 0.174082,0.1225 0.336061,0.2525 0.50603,0.3806 a 0.78583957,0.78583957 0 0 0 0.05799,0.061 0.78583957,0.78583957 0 0 0 0.0716,0.025 0.78583957,0.78583957 0 0 0 0.07066,0.025 0.78837421,0.78837421 0 0 0 0.03486,0.012 0.78583957,0.78583957 0 0 0 0.03486,0.012 0.78837421,0.78837421 0 0 0 0.03486,0.013 0.78583957,0.78583957 0 0 0 0.03486,0.012 0.78837421,0.78837421 0 0 0 0.03486,0.012 0.78583957,0.78583957 0 0 0 0.03486,0.012 0.78837421,0.78837421 0 0 0 0.07065,0.025 0.78837421,0.78837421 0 0 0 0.0716,0.025 0.78837421,0.78837421 0 0 0 0.08332,-0.01 0.78837421,0.78837421 0 0 0 0.07066,0.025 0.78837421,0.78837421 0 0 0 0.08427,-0.01 0.78837421,0.78837421 0 0 0 0.08333,-0.01 0.78837421,0.78837421 0 0 0 0.08333,-0.01 0.78837421,0.78837421 0 0 0 0.0602,-0.059 0.78837421,0.78837421 0 0 0 0.08333,-0.01 0.78837421,0.78837421 0 0 0 0.06114,-0.058 0.78837421,0.78837421 0 0 0 0.0602,-0.059 0.78837421,0.78837421 0 0 0 0.0602,-0.059 0.78837421,0.78837421 0 0 0 0.0602,-0.059 0.78837421,0.78837421 0 0 0 0.02534,-0.071 0.78837421,0.78837421 0 0 0 0.0602,-0.059 0.78837421,0.78837421 0 0 0 0.02534,-0.071 0.78837421,0.78837421 0 0 0 0.02534,-0.071 0.78837421,0.78837421 0 0 0 -0.0095,-0.084 0.78837421,0.78837421 0 0 0 0.02534,-0.071 0.78837421,0.78837421 0 0 0 -0.0095,-0.084 0.78837421,0.78837421 0 0 0 -0.0095,-0.083 0.78837421,0.78837421 0 0 0 -0.02218,-0.048 0.78837421,0.78837421 0 0 0 -0.01046,-0.084 0.78837421,0.78837421 0 0 0 -0.04531,-0.096 0.78837421,0.78837421 0 0 0 -0.02218,-0.048 c -0.985272,-1.6338 -2.159036,-3.1362 -3.505973,-4.4563 -1.347125,-1.3202 -2.867707,-2.4582 -4.519038,-3.4135 -1.325836,-0.767 -2.710927,-1.3917 -4.108357,-1.8638 -1.397429,-0.472 -2.792058,-0.7942 -4.221743,-0.9818 -1.429873,-0.1877 -2.899669,-0.2215 -4.322646,-0.1356 -1.422882,0.086 -2.818167,0.2827 -4.194814,0.6318 -1.376741,0.3491 -2.717267,0.8585 -4.008622,1.4599 -1.291354,0.6015 -2.521034,1.2924 -3.687664,2.1357 -1.166629,0.8432 -2.269887,1.8105 -3.272735,2.8848 -1.002754,1.0744 -1.91333,2.2705 -2.712963,3.5654 l -5.298468,-2.6885 a 0.78583953,0.78583953 0 0 0 -0.0716,-0.025 0.78583953,0.78583953 0 0 0 -0.07065,-0.025 0.78583953,0.78583953 0 0 0 -0.0716,-0.025 0.78583953,0.78583953 0 0 0 -0.0716,-0.025 0.78583953,0.78583953 0 0 0 -0.08333,0.01 0.78583953,0.78583953 0 0 0 -0.08427,0.01 0.78583953,0.78583953 0 0 0 -0.08427,0.01 0.78583953,0.78583953 0 0 0 -0.08427,0.01 0.78583953,0.78583953 0 0 0 -0.04753,0.023 0.78583953,0.78583953 0 0 0 -0.09694,0.046 0.78583953,0.78583953 0 0 0 -0.04753,0.023 0.78583953,0.78583953 0 0 0 -0.0602,0.059 0.78583953,0.78583953 0 0 0 -0.06114,0.059 0.78583953,0.78583953 0 0 0 -0.0602,0.059 0.78583953,0.78583953 0 0 0 -0.0602,0.059 0.78583953,0.78583953 0 0 0 -0.02535,0.071 0.78583953,0.78583953 0 0 0 -0.02534,0.071 0.78583953,0.78583953 0 0 0 -0.02534,0.071 0.78583953,0.78583953 0 0 0 -0.01267,0.036 0.78583953,0.78583953 0 0 0 -0.02534,0.071 z"
         style="fill:#80ffff;fill-opacity:1;stroke:#000000;stroke-opacity:1" />
    </g>
  </g>
</svg>
