<?xml version="1.0" encoding="UTF-8" standalone="no"?>
<!-- Created with Inkscape (http://www.inkscape.org/) -->

<svg
   xmlns:dc="http://purl.org/dc/elements/1.1/"
   xmlns:cc="http://creativecommons.org/ns#"
   xmlns:rdf="http://www.w3.org/1999/02/22-rdf-syntax-ns#"
   xmlns:svg="http://www.w3.org/2000/svg"
   xmlns="http://www.w3.org/2000/svg"
   xmlns:sodipodi="http://sodipodi.sourceforge.net/DTD/sodipodi-0.dtd"
   xmlns:inkscape="http://www.inkscape.org/namespaces/inkscape"
   width="32"
   height="32"
   id="svg2"
   version="1.1"
   inkscape:version="0.48.4 r9939"
   sodipodi:docname="tick.svg">
  <defs
     id="defs4" />
  <sodipodi:namedview
     id="base"
     pagecolor="#ffffff"
     bordercolor="#666666"
     borderopacity="1.0"
     inkscape:pageopacity="0.0"
     inkscape:pageshadow="2"
     inkscape:zoom="18.96875"
     inkscape:cx="16"
     inkscape:cy="16"
     inkscape:document-units="px"
     inkscape:current-layer="layer1"
     showgrid="false"
     inkscape:window-width="1301"
     inkscape:window-height="744"
     inkscape:window-x="65"
     inkscape:window-y="24"
     inkscape:window-maximized="1" />
  <metadata
     id="metadata7">
    <rdf:RDF>
      <cc:Work
         rdf:about="">
        <dc:format>image/svg+xml</dc:format>
        <dc:type
           rdf:resource="http://purl.org/dc/dcmitype/StillImage" />
        <dc:title />
      </cc:Work>
    </rdf:RDF>
  </metadata>
  <g
     inkscape:label="Layer 1"
     inkscape:groupmode="layer"
     id="layer1"
     transform="translate(0,-1020.3622)">
    <path
       style="color:#000000;fill:#ff6600;fill-opacity:1;fill-rule:nonzero;stroke:none;stroke-width:1;marker:none;visibility:visible;display:inline;overflow:visible;enable-background:accumulate"
       id="path2985"
       d="m 3.5580456,1036.3032 c 0.6079467,0.5417 1.1888667,1.1135 1.7769892,1.6767 1.4277814,1.4293 2.8609104,2.8516 4.3444494,4.2233 0.6819238,0.6247 1.3768548,1.2348 2.0836218,1.8312 0.172505,0.1456 0.636562,0.5414 0.857813,0.6931 0.05945,0.041 0.127669,0.067 0.191496,0.1004 -0.07514,-0.1829 0.05424,0.09 -0.332734,-0.145 -0.02564,-0.015 -5.66e-4,-0.065 0.0192,-0.088 0.096,-0.1095 0.215624,-0.1959 0.319251,-0.2982 0.423165,-0.4178 0.898262,-0.9274 1.298906,-1.3496 2.355791,-2.553 4.696027,-5.1203 7.068354,-7.6579 2.401799,-2.5254 4.742418,-5.1078 7.111025,-7.664 0.227875,-0.2438 0.45575,-0.4875 0.683624,-0.7313 1.280692,-1.3698 3.217935,0.4414 1.937243,1.8112 l 0,0 c -0.225195,0.2409 -0.45039,0.4817 -0.675585,0.7226 -2.371338,2.559 -4.714483,5.1444 -7.119029,7.6726 -2.37714,2.5426 -4.72143,5.1155 -7.082508,7.673 -0.32021,0.337 -1.121194,1.1945 -1.492398,1.5338 -0.387573,0.3542 -0.932908,0.8161 -1.459383,0.9569 -0.819623,0.2192 -0.937084,0.085 -1.621587,-0.151 -0.156377,-0.096 -0.318242,-0.184 -0.469131,-0.2885 -0.242689,-0.1682 -0.747137,-0.5965 -0.953728,-0.771 -0.7343588,-0.62 -1.4566128,-1.2542 -2.1652248,-1.9035 -1.494266,-1.3826 -2.9405349,-2.8133 -4.3777971,-4.2548 -0.5441463,-0.521 -1.0832065,-1.0481 -1.6406517,-1.5549 -1.44062009,-1.2005 0.257167,-3.2378 1.6977872,-2.0373 z"
       inkscape:connector-curvature="0" />
  </g>
</svg>
